# xmcd
#
# Track frame offsets: 
#        180
#        10052
#        20678
#        31910
#        42604
#        54155
#        65102
#        74969
#        85721
#        95936
#        106943
#        118934
#        130823
#        142256
#        155619
#        165567
#        177294
#        188590
#        199893
#        212974
#        224143
#        235650
#
# Disc length: 3249 seconds
#
# Revision: 1
# Processed by: cddbd v1.5.2PL0 Copyright (c) Steve Scherf et al.
# Submitted via: ExactAudioCopy v0.99pb1
#
DISCID=550caf16
DTITLE=Papa Lightfoot and Sammy Myers - Blues Harmonica Wizards
DYEAR=1144
DGENRE=blues
TTITLE0=Papa Lightfoot - Wine Women and Whiskey
TTITLE1=Papa Lightfoot - Jump the Boogie
TTITLE2=Papa Light foot - Mean Ol' Train
TTITLE3=Papa Lightfoot - P. L. Blues
TTITLE4=Papa Lightfoot - When The Saints Go Marchin' In
TTITLE5=Papa Lightfoot - Blue Lights
TTITLE6=Papa Lightfoot - Mean Ol' Train #2
TTITLE7=Papa Lightfoot - Wild Fire
TTITLE8=Papa Lightfoot - Jumpin With Jarvis
TTITLE9=Papa Lightfoot - Rub a Little Boogie 
TTITLE10=Papa Lightfoot - Mr. Ticket Agent
TTITLE11=Papa Lightfoot - Coming Back Home
TTITLE12=Papa Lightfoot - Creole Gal Blues
TTITLE13=Papa Lightfoot - She'll Be mine After Awhile
TTITLE14=Papa Lightfoot - Mean Ol' Train #3
TTITLE15=Sammy Myers - Sleepin In the Ground
TTITLE16=Sammy Myers - My Love Is There to Stay
TTITLE17=Sammy Myers - You Don't Have to Go
TTITLE18=Sammy Myers - Sad Sad Lonesome Day
TTITLE19=Sammy Myers - Look On Yonder Wall
TTITLE20=Sammy Myers - Poor Little Angel Child
TTITLE21=Sammy Myers - Rhythm With Me
EXTD=
EXTT0=
EXTT1=
EXTT2=
EXTT3=
EXTT4=
EXTT5=
EXTT6=
EXTT7=
EXTT8=
EXTT9=
EXTT10=
EXTT11=
EXTT12=
EXTT13=
EXTT14=
EXTT15=
EXTT16=
EXTT17=
EXTT18=
EXTT19=
EXTT20=
EXTT21=
PLAYORDER=
